<?xml version="1.0" standalone="no"?><!DOCTYPE svg PUBLIC "-//W3C//DTD SVG 1.1//EN" "http://www.w3.org/Graphics/SVG/1.1/DTD/svg11.dtd">
<svg x="0.0000mm" y="0.0000mm" width="81.4920mm" height="26.4580mm" viewBox="0.0000 0.0000 81.4920 26.4580" version="1.1" xmlns="http://www.w3.org/2000/svg" shape-rendering="crispEdges">
<title>TBarCode - 11.17.1.16949</title>
<desc>BarCode licensed to MEM:TEC-IT Datenverarbeitung GmbH Internal License</desc>
<g fill="rgb(0%,0%,0%)">
</g>
<g fill="rgb(100%,100%,100%)">
<rect x="0.0000" y="0.0000" width="81.4920" height="26.4580" />
</g>
<g fill="rgb(0%,0%,0%)">
</g>
<g fill="rgb(0%,0%,0%)">
<rect x="0.0000" y="0.0000" width="0.5292" height="20.1864" />
<rect x="1.0583" y="0.0000" width="0.5292" height="20.1864" />
<rect x="2.1167" y="0.0000" width="2.1167" height="20.1864" />
<rect x="4.7625" y="0.0000" width="0.5292" height="20.1864" />
<rect x="5.8209" y="0.0000" width="0.5292" height="20.1864" />
<rect x="7.9375" y="0.0000" width="0.5292" height="20.1864" />
<rect x="9.5250" y="0.0000" width="0.5292" height="20.1864" />
<rect x="10.5834" y="0.0000" width="0.5292" height="20.1864" />
<rect x="12.7001" y="0.0000" width="0.5292" height="20.1864" />
<rect x="14.2876" y="0.0000" width="0.5292" height="20.1864" />
<rect x="16.4042" y="0.0000" width="0.5292" height="20.1864" />
<rect x="17.4626" y="0.0000" width="0.5292" height="20.1864" />
<rect x="19.0501" y="0.0000" width="0.5292" height="20.1864" />
<rect x="20.1084" y="0.0000" width="0.5292" height="20.1864" />
<rect x="22.2251" y="0.0000" width="0.5292" height="20.1864" />
<rect x="23.8126" y="0.0000" width="0.5292" height="20.1864" />
<rect x="24.8709" y="0.0000" width="0.5292" height="20.1864" />
<rect x="26.9876" y="0.0000" width="0.5292" height="20.1864" />
<rect x="28.5751" y="0.0000" width="0.5292" height="20.1864" />
<rect x="30.6918" y="0.0000" width="0.5292" height="20.1864" />
<rect x="31.7501" y="0.0000" width="0.5292" height="20.1864" />
<rect x="33.3376" y="0.0000" width="0.5292" height="20.1864" />
<rect x="34.3960" y="0.0000" width="0.5292" height="20.1864" />
<rect x="36.5126" y="0.0000" width="0.5292" height="20.1864" />
<rect x="38.1002" y="0.0000" width="0.5292" height="20.1864" />
<rect x="39.1585" y="0.0000" width="0.5292" height="20.1864" />
<rect x="41.2752" y="0.0000" width="0.5292" height="20.1864" />
<rect x="42.8627" y="0.0000" width="0.5292" height="20.1864" />
<rect x="43.9210" y="0.0000" width="0.5292" height="20.1864" />
<rect x="46.5669" y="0.0000" width="0.5292" height="20.1864" />
<rect x="47.6252" y="0.0000" width="0.5292" height="20.1864" />
<rect x="48.6835" y="0.0000" width="0.5292" height="20.1864" />
<rect x="50.2710" y="0.0000" width="0.5292" height="20.1864" />
<rect x="52.3877" y="0.0000" width="0.5292" height="20.1864" />
<rect x="53.4461" y="0.0000" width="0.5292" height="20.1864" />
<rect x="55.0336" y="0.0000" width="0.5292" height="20.1864" />
<rect x="57.1502" y="0.0000" width="0.5292" height="20.1864" />
<rect x="58.2086" y="0.0000" width="0.5292" height="20.1864" />
<rect x="59.7961" y="0.0000" width="0.5292" height="20.1864" />
<rect x="61.9128" y="0.0000" width="0.5292" height="20.1864" />
<rect x="62.9711" y="0.0000" width="0.5292" height="20.1864" />
<rect x="64.5586" y="0.0000" width="0.5292" height="20.1864" />
<rect x="66.6753" y="0.0000" width="1.5875" height="20.1864" />
<rect x="68.7919" y="0.0000" width="0.5292" height="20.1864" />
<rect x="69.8503" y="0.0000" width="1.0583" height="20.1864" />
<rect x="71.4378" y="0.0000" width="1.0583" height="20.1864" />
<rect x="74.0836" y="0.0000" width="0.5292" height="20.1864" />
<rect x="75.1420" y="0.0000" width="0.5292" height="20.1864" />
<rect x="76.2003" y="0.0000" width="0.5292" height="20.1864" />
<rect x="77.2586" y="0.0000" width="0.5292" height="20.1864" />
<rect x="78.3170" y="0.0000" width="2.1167" height="20.1864" />
<rect x="80.9628" y="0.0000" width="0.5292" height="20.1864" />
</g>
<g fill="rgb(0%,0%,0%)">
<text x="40.7460" y="25.2821" transform="rotate(360 40.7460,25.2821)" text-anchor="middle" font-family="Arial" font-size="5.6444" >2202202231111</text>
</g>
</svg>
